<mxfile host="app.diagrams.net" modified="2023-11-02T02:01:54.612Z" agent="Mozilla/5.0 (Macintosh; Intel Mac OS X 10_15_7) AppleWebKit/537.36 (KHTML, like Gecko) Chrome/118.0.0.0 Safari/537.36" etag="8_Xy1XiQirAh5dneIFJ3" version="22.0.8" type="github">
  <diagram id="9H7ylQ0CBS7OcGbB-OY6" name="第 1 页">
    <mxGraphModel dx="911" dy="586" grid="0" gridSize="10" guides="1" tooltips="1" connect="1" arrows="1" fold="1" page="1" pageScale="1" pageWidth="3300" pageHeight="4681" math="0" shadow="0">
      <root>
        <mxCell id="0" />
        <mxCell id="1" parent="0" />
        <mxCell id="f5rMAXCIY-t6Gz_17kIP-2" value="&lt;font style=&quot;font-size: 24px;&quot;&gt;&lt;b&gt;20230403线上调价流程&lt;/b&gt;&lt;/font&gt;" style="text;html=1;strokeColor=none;fillColor=none;align=center;verticalAlign=middle;whiteSpace=wrap;rounded=0;" parent="1" vertex="1">
          <mxGeometry x="2365" y="269" width="297" height="30" as="geometry" />
        </mxCell>
        <mxCell id="f5rMAXCIY-t6Gz_17kIP-3" value="" style="endArrow=classic;html=1;rounded=0;" parent="1" edge="1">
          <mxGeometry width="50" height="50" relative="1" as="geometry">
            <mxPoint x="2502.7333881445747" y="367.51307066916814" as="sourcePoint" />
            <mxPoint x="2412.954102920723" y="437.1013133208255" as="targetPoint" />
          </mxGeometry>
        </mxCell>
        <mxCell id="f5rMAXCIY-t6Gz_17kIP-4" value="小于等于90天" style="edgeLabel;html=1;align=center;verticalAlign=middle;resizable=0;points=[];" parent="f5rMAXCIY-t6Gz_17kIP-3" vertex="1" connectable="0">
          <mxGeometry x="0.441" y="-5" relative="1" as="geometry">
            <mxPoint y="1" as="offset" />
          </mxGeometry>
        </mxCell>
        <mxCell id="f5rMAXCIY-t6Gz_17kIP-5" value="&lt;font style=&quot;font-size: 18px;&quot;&gt;预警车源&lt;/font&gt;" style="rounded=1;whiteSpace=wrap;html=1;" parent="1" vertex="1">
          <mxGeometry x="2396.806675938804" y="339" width="228.73368567454796" height="28.517823639774857" as="geometry" />
        </mxCell>
        <mxCell id="f5rMAXCIY-t6Gz_17kIP-6" value="" style="endArrow=classic;html=1;rounded=0;" parent="1" edge="1">
          <mxGeometry width="50" height="50" relative="1" as="geometry">
            <mxPoint x="2513.4983394658543" y="367.5130706691683" as="sourcePoint" />
            <mxPoint x="2595.9582753824757" y="437.1013133208255" as="targetPoint" />
          </mxGeometry>
        </mxCell>
        <mxCell id="f5rMAXCIY-t6Gz_17kIP-7" value="大于90天" style="edgeLabel;html=1;align=center;verticalAlign=middle;resizable=0;points=[];" parent="f5rMAXCIY-t6Gz_17kIP-6" vertex="1" connectable="0">
          <mxGeometry x="0.441" y="-5" relative="1" as="geometry">
            <mxPoint y="-7" as="offset" />
          </mxGeometry>
        </mxCell>
        <mxCell id="f5rMAXCIY-t6Gz_17kIP-8" value="&lt;font style=&quot;font-size: 18px;&quot;&gt;车型性价比模型&lt;/font&gt;" style="rounded=1;whiteSpace=wrap;html=1;" parent="1" vertex="1">
          <mxGeometry x="2276.239221140473" y="441.6641651031895" width="228.73368567454796" height="28.517823639774857" as="geometry" />
        </mxCell>
        <mxCell id="f5rMAXCIY-t6Gz_17kIP-9" value="&lt;font style=&quot;font-size: 18px;&quot;&gt;同基本配置车系模型&lt;/font&gt;" style="rounded=1;whiteSpace=wrap;html=1;" parent="1" vertex="1">
          <mxGeometry x="2556.1279554937414" y="441.6641651031895" width="244.3643949930459" height="28.517823639774857" as="geometry" />
        </mxCell>
        <mxCell id="f5rMAXCIY-t6Gz_17kIP-10" value="" style="endArrow=classic;html=1;rounded=0;" parent="1" target="f5rMAXCIY-t6Gz_17kIP-13" edge="1">
          <mxGeometry width="50" height="50" relative="1" as="geometry">
            <mxPoint x="2413.384292177954" y="472.4586616635397" as="sourcePoint" />
            <mxPoint x="2470.008344923505" y="546.609756097561" as="targetPoint" />
          </mxGeometry>
        </mxCell>
        <mxCell id="f5rMAXCIY-t6Gz_17kIP-11" value="" style="endArrow=classic;html=1;rounded=0;entryX=0.5;entryY=0;entryDx=0;entryDy=0;" parent="1" target="f5rMAXCIY-t6Gz_17kIP-12" edge="1">
          <mxGeometry width="50" height="50" relative="1" as="geometry">
            <mxPoint x="2668.0830404394287" y="470.1772357723578" as="sourcePoint" />
            <mxPoint x="2550.7454798331014" y="544.328330206379" as="targetPoint" />
          </mxGeometry>
        </mxCell>
        <mxCell id="f5rMAXCIY-t6Gz_17kIP-12" value="&lt;font style=&quot;font-size: 18px;&quot;&gt;参考数据量&lt;/font&gt;" style="rounded=1;whiteSpace=wrap;html=1;" parent="1" vertex="1">
          <mxGeometry x="2573.35" y="514.67" width="244.36" height="30.33" as="geometry" />
        </mxCell>
        <mxCell id="f5rMAXCIY-t6Gz_17kIP-13" value="&lt;font style=&quot;font-size: 18px;&quot;&gt;首先判断线索增量&amp;nbsp; &amp;amp;&amp;nbsp;&lt;/font&gt;&lt;span style=&quot;font-size: 18px;&quot;&gt;参考数据量&amp;nbsp;&amp;nbsp;&lt;/span&gt;" style="rounded=1;whiteSpace=wrap;html=1;" parent="1" vertex="1">
          <mxGeometry x="2104" y="514.67" width="413.37" height="27.33" as="geometry" />
        </mxCell>
        <mxCell id="f5rMAXCIY-t6Gz_17kIP-14" value="&lt;span style=&quot;font-size: 18px;&quot;&gt;40%性价比&amp;nbsp;&amp;nbsp;&lt;/span&gt;" style="rounded=1;whiteSpace=wrap;html=1;" parent="1" vertex="1">
          <mxGeometry x="2208.4200278164117" y="573.4165103189493" width="167.93324061196105" height="21.673545966228893" as="geometry" />
        </mxCell>
        <mxCell id="f5rMAXCIY-t6Gz_17kIP-15" value="&lt;span style=&quot;font-size: 18px;&quot;&gt;连续30天未调减15%&lt;/span&gt;" style="rounded=1;whiteSpace=wrap;html=1;" parent="1" vertex="1">
          <mxGeometry x="2208.4200278164117" y="628.7410881801126" width="200.2280945757997" height="21.673545966228893" as="geometry" />
        </mxCell>
        <mxCell id="f5rMAXCIY-t6Gz_17kIP-16" value="&lt;span style=&quot;font-size: 18px;&quot;&gt;连续30天未调减15%&lt;/span&gt;" style="rounded=1;whiteSpace=wrap;html=1;" parent="1" vertex="1">
          <mxGeometry x="2596.9100278164115" y="703.5639399624765" width="200.2280945757997" height="21.673545966228893" as="geometry" />
        </mxCell>
        <mxCell id="f5rMAXCIY-t6Gz_17kIP-17" value="&lt;span style=&quot;font-size: 18px;&quot;&gt;是否超限（采购总成本）&lt;/span&gt;" style="rounded=1;whiteSpace=wrap;html=1;" parent="1" vertex="1">
          <mxGeometry x="2196.578581363004" y="693.7617260787993" width="223.91098748261473" height="21.673545966228893" as="geometry" />
        </mxCell>
        <mxCell id="f5rMAXCIY-t6Gz_17kIP-18" value="" style="edgeStyle=orthogonalEdgeStyle;rounded=0;orthogonalLoop=1;jettySize=auto;html=1;fontSize=18;" parent="1" source="f5rMAXCIY-t6Gz_17kIP-15" target="f5rMAXCIY-t6Gz_17kIP-17" edge="1">
          <mxGeometry relative="1" as="geometry" />
        </mxCell>
        <mxCell id="f5rMAXCIY-t6Gz_17kIP-19" value="&lt;span style=&quot;font-size: 18px;&quot;&gt;是否超限&lt;/span&gt;&lt;br&gt;&lt;font style=&quot;font-size: 12px;&quot;&gt;&quot;0-5w(含)&quot;: 0.1, &quot;05-10w(含)&quot;: 0.25, &quot;10-15w(含)&quot;: 0.4, &quot;15-20w(含)&quot;: 0.45, &quot;20-30w(含)&quot;: 0.55, &quot;30w以上&quot;: 0.65&lt;/font&gt;&lt;br&gt;&lt;br&gt;&quot;0-5w(含)&quot;: 0.2, &quot;05-10w(含)&quot;: 0.35, &quot;10-15w(含)&quot;: 0.5, &quot;15-20w(含)&quot;: 0.65, &quot;20-30w(含)&quot;: 0.8, &quot;30w以上&quot;: 1.2" style="rounded=1;whiteSpace=wrap;html=1;" parent="1" vertex="1">
          <mxGeometry x="2593.540598052851" y="759.4588742964352" width="206.95618915159943" height="169.96622889305814" as="geometry" />
        </mxCell>
        <mxCell id="f5rMAXCIY-t6Gz_17kIP-20" value="" style="edgeStyle=orthogonalEdgeStyle;rounded=0;orthogonalLoop=1;jettySize=auto;html=1;fontSize=18;" parent="1" source="f5rMAXCIY-t6Gz_17kIP-16" target="f5rMAXCIY-t6Gz_17kIP-19" edge="1">
          <mxGeometry relative="1" as="geometry" />
        </mxCell>
        <mxCell id="f5rMAXCIY-t6Gz_17kIP-21" value="&lt;span style=&quot;font-size: 18px;&quot;&gt;过滤封店、瓜子活动车&lt;/span&gt;" style="rounded=1;whiteSpace=wrap;html=1;" parent="1" vertex="1">
          <mxGeometry x="2349.540792767733" y="975.5621763602251" width="241.13490959666203" height="28.517823639774857" as="geometry" />
        </mxCell>
        <mxCell id="f5rMAXCIY-t6Gz_17kIP-22" value="" style="endArrow=classic;html=1;rounded=0;exitX=0.5;exitY=1;exitDx=0;exitDy=0;" parent="1" source="f5rMAXCIY-t6Gz_17kIP-17" target="f5rMAXCIY-t6Gz_17kIP-21" edge="1">
          <mxGeometry width="50" height="50" relative="1" as="geometry">
            <mxPoint x="2289.0740751043113" y="673.9952720450281" as="sourcePoint" />
            <mxPoint x="2458.0838108484004" y="916.96712945591" as="targetPoint" />
          </mxGeometry>
        </mxCell>
        <mxCell id="f5rMAXCIY-t6Gz_17kIP-23" value="" style="endArrow=classic;html=1;rounded=0;entryX=0.558;entryY=0.03;entryDx=0;entryDy=0;entryPerimeter=0;exitX=0.5;exitY=1;exitDx=0;exitDy=0;" parent="1" source="f5rMAXCIY-t6Gz_17kIP-19" target="f5rMAXCIY-t6Gz_17kIP-21" edge="1">
          <mxGeometry width="50" height="50" relative="1" as="geometry">
            <mxPoint x="2671.563151705075" y="817.7203502188868" as="sourcePoint" />
            <mxPoint x="2594.797385246514" y="859.9314821763603" as="targetPoint" />
          </mxGeometry>
        </mxCell>
        <mxCell id="f5rMAXCIY-t6Gz_17kIP-24" value="&lt;span style=&quot;font-size: 18px;&quot;&gt;线索增量 | 性价比30%&amp;nbsp;&amp;nbsp;&lt;br&gt;二者满足其一则不调&lt;br&gt;&lt;/span&gt;" style="whiteSpace=wrap;html=1;rounded=1;" parent="1" vertex="1">
          <mxGeometry x="2485" y="604" width="200" height="60" as="geometry" />
        </mxCell>
        <mxCell id="f5rMAXCIY-t6Gz_17kIP-25" value="&lt;font style=&quot;font-size: 18px;&quot;&gt;线索增量 &amp;amp; 性价比20%&amp;nbsp;&lt;br&gt;二者都满足则不调&lt;br&gt;&lt;/font&gt;" style="whiteSpace=wrap;html=1;rounded=1;" parent="1" vertex="1">
          <mxGeometry x="2753" y="604" width="206" height="62" as="geometry" />
        </mxCell>
        <mxCell id="f5rMAXCIY-t6Gz_17kIP-26" value="" style="endArrow=classic;html=1;rounded=0;exitX=0.5;exitY=1;exitDx=0;exitDy=0;entryX=0.5;entryY=0;entryDx=0;entryDy=0;" parent="1" source="f5rMAXCIY-t6Gz_17kIP-12" target="f5rMAXCIY-t6Gz_17kIP-24" edge="1">
          <mxGeometry width="50" height="50" relative="1" as="geometry">
            <mxPoint x="2699.9133881445746" y="562.7030706691683" as="sourcePoint" />
            <mxPoint x="2610.134102920723" y="632.2913133208256" as="targetPoint" />
          </mxGeometry>
        </mxCell>
        <mxCell id="f5rMAXCIY-t6Gz_17kIP-27" value="90-150天" style="edgeLabel;html=1;align=center;verticalAlign=middle;resizable=0;points=[];fontSize=18;" parent="f5rMAXCIY-t6Gz_17kIP-26" vertex="1" connectable="0">
          <mxGeometry x="0.3413" y="-2" relative="1" as="geometry">
            <mxPoint x="18" y="-9" as="offset" />
          </mxGeometry>
        </mxCell>
        <mxCell id="f5rMAXCIY-t6Gz_17kIP-28" value="" style="endArrow=classic;html=1;rounded=0;entryX=0.5;entryY=0;entryDx=0;entryDy=0;" parent="1" target="f5rMAXCIY-t6Gz_17kIP-25" edge="1">
          <mxGeometry width="50" height="50" relative="1" as="geometry">
            <mxPoint x="2696" y="545" as="sourcePoint" />
            <mxPoint x="2608.765" y="589" as="targetPoint" />
          </mxGeometry>
        </mxCell>
        <mxCell id="f5rMAXCIY-t6Gz_17kIP-29" value="150天以上" style="edgeLabel;html=1;align=center;verticalAlign=middle;resizable=0;points=[];fontSize=18;" parent="f5rMAXCIY-t6Gz_17kIP-28" vertex="1" connectable="0">
          <mxGeometry x="-0.2289" y="2" relative="1" as="geometry">
            <mxPoint x="9" y="4" as="offset" />
          </mxGeometry>
        </mxCell>
        <mxCell id="f5rMAXCIY-t6Gz_17kIP-30" value="" style="endArrow=classic;html=1;rounded=0;exitX=0.5;exitY=1;exitDx=0;exitDy=0;entryX=0.5;entryY=0;entryDx=0;entryDy=0;" parent="1" source="f5rMAXCIY-t6Gz_17kIP-24" target="f5rMAXCIY-t6Gz_17kIP-16" edge="1">
          <mxGeometry width="50" height="50" relative="1" as="geometry">
            <mxPoint x="2547.573040439429" y="708.9972357723577" as="sourcePoint" />
            <mxPoint x="2843.49" y="727.8199999999999" as="targetPoint" />
          </mxGeometry>
        </mxCell>
        <mxCell id="f5rMAXCIY-t6Gz_17kIP-31" value="" style="endArrow=classic;html=1;rounded=0;entryX=0.5;entryY=0;entryDx=0;entryDy=0;" parent="1" source="f5rMAXCIY-t6Gz_17kIP-25" target="f5rMAXCIY-t6Gz_17kIP-16" edge="1">
          <mxGeometry width="50" height="50" relative="1" as="geometry">
            <mxPoint x="2854" y="664" as="sourcePoint" />
            <mxPoint x="2993.484075104311" y="745.0039399624766" as="targetPoint" />
          </mxGeometry>
        </mxCell>
        <mxCell id="f5rMAXCIY-t6Gz_17kIP-32" value="" style="edgeStyle=orthogonalEdgeStyle;rounded=0;orthogonalLoop=1;jettySize=auto;html=1;fontSize=18;exitX=0.5;exitY=1;exitDx=0;exitDy=0;entryX=0.397;entryY=0.058;entryDx=0;entryDy=0;entryPerimeter=0;" parent="1" source="f5rMAXCIY-t6Gz_17kIP-14" target="f5rMAXCIY-t6Gz_17kIP-15" edge="1">
          <mxGeometry relative="1" as="geometry">
            <mxPoint x="2318.5" y="660.4146341463413" as="sourcePoint" />
            <mxPoint x="2318.5" y="703.7617260787993" as="targetPoint" />
          </mxGeometry>
        </mxCell>
        <mxCell id="f5rMAXCIY-t6Gz_17kIP-33" value="" style="endArrow=classic;html=1;rounded=0;fontSize=18;exitX=0.484;exitY=0.963;exitDx=0;exitDy=0;exitPerimeter=0;" parent="1" source="f5rMAXCIY-t6Gz_17kIP-13" target="f5rMAXCIY-t6Gz_17kIP-14" edge="1">
          <mxGeometry width="50" height="50" relative="1" as="geometry">
            <mxPoint x="2494" y="512" as="sourcePoint" />
            <mxPoint x="2544" y="462" as="targetPoint" />
          </mxGeometry>
        </mxCell>
        <mxCell id="O943dp6hjqqkGVOT5jJ1-1" value="" style="shape=crossbar;whiteSpace=wrap;html=1;rounded=1;" parent="1" vertex="1">
          <mxGeometry x="1147" y="927" width="167" height="20" as="geometry" />
        </mxCell>
        <mxCell id="3Ftk8rHP4F3CbFdeY5we-1" value="" style="shape=crossbar;whiteSpace=wrap;html=1;rounded=1;" parent="1" vertex="1">
          <mxGeometry x="1261" y="222" width="120" height="20" as="geometry" />
        </mxCell>
        <mxCell id="3Ftk8rHP4F3CbFdeY5we-3" value="" style="shape=crossbar;whiteSpace=wrap;html=1;rounded=1;" parent="1" vertex="1">
          <mxGeometry x="1381" y="222" width="14" height="20" as="geometry" />
        </mxCell>
        <mxCell id="3Ftk8rHP4F3CbFdeY5we-4" value="" style="shape=crossbar;whiteSpace=wrap;html=1;rounded=1;" parent="1" vertex="1">
          <mxGeometry x="1395" y="222" width="120" height="20" as="geometry" />
        </mxCell>
        <mxCell id="3Ftk8rHP4F3CbFdeY5we-6" value="0" style="text;html=1;strokeColor=none;fillColor=none;align=center;verticalAlign=middle;whiteSpace=wrap;rounded=0;" parent="1" vertex="1">
          <mxGeometry x="1232" y="239" width="60" height="30" as="geometry" />
        </mxCell>
        <mxCell id="3Ftk8rHP4F3CbFdeY5we-7" value="7" style="text;html=1;strokeColor=none;fillColor=none;align=center;verticalAlign=middle;whiteSpace=wrap;rounded=0;" parent="1" vertex="1">
          <mxGeometry x="1350" y="239" width="60" height="30" as="geometry" />
        </mxCell>
        <mxCell id="3Ftk8rHP4F3CbFdeY5we-8" value="8" style="text;html=1;strokeColor=none;fillColor=none;align=center;verticalAlign=middle;whiteSpace=wrap;rounded=0;" parent="1" vertex="1">
          <mxGeometry x="1368" y="239" width="60" height="30" as="geometry" />
        </mxCell>
        <mxCell id="3Ftk8rHP4F3CbFdeY5we-9" value="15" style="text;html=1;strokeColor=none;fillColor=none;align=center;verticalAlign=middle;whiteSpace=wrap;rounded=0;" parent="1" vertex="1">
          <mxGeometry x="1485" y="242" width="60" height="30" as="geometry" />
        </mxCell>
        <mxCell id="3Ftk8rHP4F3CbFdeY5we-11" value="" style="shape=crossbar;whiteSpace=wrap;html=1;rounded=1;" parent="1" vertex="1">
          <mxGeometry x="1515" y="222" width="366" height="20" as="geometry" />
        </mxCell>
        <mxCell id="3Ftk8rHP4F3CbFdeY5we-12" value="36" style="text;html=1;strokeColor=none;fillColor=none;align=center;verticalAlign=middle;whiteSpace=wrap;rounded=0;" parent="1" vertex="1">
          <mxGeometry x="1851" y="239" width="60" height="30" as="geometry" />
        </mxCell>
        <mxCell id="3Ftk8rHP4F3CbFdeY5we-13" value="" style="shape=curlyBracket;whiteSpace=wrap;html=1;rounded=1;labelPosition=left;verticalLabelPosition=middle;align=right;verticalAlign=middle;rotation=-90;" parent="1" vertex="1">
          <mxGeometry x="1311" y="222" width="20" height="120" as="geometry" />
        </mxCell>
        <mxCell id="3Ftk8rHP4F3CbFdeY5we-14" value="筛选出线索为0的车源" style="text;html=1;strokeColor=none;fillColor=none;align=center;verticalAlign=middle;whiteSpace=wrap;rounded=0;" parent="1" vertex="1">
          <mxGeometry x="1272" y="287" width="94" height="30" as="geometry" />
        </mxCell>
        <mxCell id="3Ftk8rHP4F3CbFdeY5we-17" value="" style="shape=curlyBracket;whiteSpace=wrap;html=1;rounded=1;flipH=1;labelPosition=right;verticalLabelPosition=middle;align=left;verticalAlign=middle;rotation=90;" parent="1" vertex="1">
          <mxGeometry x="1629" y="29" width="20" height="487.5" as="geometry" />
        </mxCell>
        <mxCell id="3Ftk8rHP4F3CbFdeY5we-19" value="" style="group;movable=1;resizable=1;rotatable=1;deletable=1;editable=1;locked=0;connectable=1;" parent="1" vertex="1" connectable="0">
          <mxGeometry x="1609" y="282" width="83" height="38" as="geometry" />
        </mxCell>
        <mxCell id="3Ftk8rHP4F3CbFdeY5we-15" value="" style="endArrow=classic;html=1;rounded=0;entryX=0.5;entryY=1;entryDx=0;entryDy=0;movable=1;resizable=1;rotatable=1;deletable=1;editable=1;locked=0;connectable=1;" parent="3Ftk8rHP4F3CbFdeY5we-19" edge="1">
          <mxGeometry width="50" height="50" relative="1" as="geometry">
            <mxPoint x="30" y="25.839999999999996" as="sourcePoint" />
            <mxPoint x="30" as="targetPoint" />
          </mxGeometry>
        </mxCell>
        <mxCell id="3Ftk8rHP4F3CbFdeY5we-16" value="线上模型判断" style="text;html=1;strokeColor=none;fillColor=none;align=center;verticalAlign=middle;whiteSpace=wrap;rounded=0;movable=1;resizable=1;rotatable=1;deletable=1;editable=1;locked=0;connectable=1;" parent="3Ftk8rHP4F3CbFdeY5we-19" vertex="1">
          <mxGeometry x="-11" y="28" width="83" height="15.2" as="geometry" />
        </mxCell>
        <mxCell id="3Ftk8rHP4F3CbFdeY5we-20" value="" style="shape=curlyBracket;whiteSpace=wrap;html=1;rounded=1;flipH=1;labelPosition=right;verticalLabelPosition=middle;align=left;verticalAlign=middle;rotation=-90;" parent="1" vertex="1">
          <mxGeometry x="1445" y="144" width="20" height="120" as="geometry" />
        </mxCell>
        <mxCell id="3Ftk8rHP4F3CbFdeY5we-22" value="实际产生线索车源" style="text;html=1;strokeColor=none;fillColor=none;align=center;verticalAlign=middle;whiteSpace=wrap;rounded=0;" parent="1" vertex="1">
          <mxGeometry x="1408" y="172" width="101" height="30" as="geometry" />
        </mxCell>
        <mxCell id="3Ftk8rHP4F3CbFdeY5we-23" value="" style="shape=curlyBracket;whiteSpace=wrap;html=1;rounded=1;flipH=1;labelPosition=right;verticalLabelPosition=middle;align=left;verticalAlign=middle;rotation=-90;dashed=1;" parent="1" vertex="1">
          <mxGeometry x="1680.25" y="34.75" width="35" height="364.5" as="geometry" />
        </mxCell>
        <mxCell id="3Ftk8rHP4F3CbFdeY5we-24" value="偏差" style="text;html=1;strokeColor=none;fillColor=none;align=center;verticalAlign=middle;whiteSpace=wrap;rounded=0;" parent="1" vertex="1">
          <mxGeometry x="1647.5" y="176" width="101" height="30" as="geometry" />
        </mxCell>
        <mxCell id="3Ftk8rHP4F3CbFdeY5we-27" style="edgeStyle=orthogonalEdgeStyle;rounded=0;orthogonalLoop=1;jettySize=auto;html=1;entryX=0.786;entryY=0.005;entryDx=0;entryDy=0;entryPerimeter=0;" parent="1" edge="1">
          <mxGeometry relative="1" as="geometry">
            <mxPoint x="1515.3225000000002" y="230.01000000000022" as="targetPoint" />
            <mxPoint x="1516" y="151.20000000000005" as="sourcePoint" />
          </mxGeometry>
        </mxCell>
        <mxCell id="3Ftk8rHP4F3CbFdeY5we-25" value="策略叠加：前15天线索为0则下架" style="text;html=1;strokeColor=default;fillColor=none;align=center;verticalAlign=middle;whiteSpace=wrap;rounded=0;movable=1;resizable=1;rotatable=1;deletable=1;editable=1;locked=0;connectable=1;dashed=1;" parent="1" vertex="1">
          <mxGeometry x="1463" y="112" width="111" height="36" as="geometry" />
        </mxCell>
        <mxCell id="CgJOc7NydfEBPNeCv6qh-19" value="" style="group" vertex="1" connectable="0" parent="1">
          <mxGeometry x="1526" y="506" width="308" height="20" as="geometry" />
        </mxCell>
        <mxCell id="CgJOc7NydfEBPNeCv6qh-11" value="" style="shape=crossbar;whiteSpace=wrap;html=1;rounded=1;" vertex="1" parent="CgJOc7NydfEBPNeCv6qh-19">
          <mxGeometry x="44" width="44" height="20" as="geometry" />
        </mxCell>
        <mxCell id="CgJOc7NydfEBPNeCv6qh-12" value="" style="shape=crossbar;whiteSpace=wrap;html=1;rounded=1;" vertex="1" parent="CgJOc7NydfEBPNeCv6qh-19">
          <mxGeometry x="88" width="44" height="20" as="geometry" />
        </mxCell>
        <mxCell id="CgJOc7NydfEBPNeCv6qh-13" value="" style="shape=crossbar;whiteSpace=wrap;html=1;rounded=1;" vertex="1" parent="CgJOc7NydfEBPNeCv6qh-19">
          <mxGeometry x="132" width="44" height="20" as="geometry" />
        </mxCell>
        <mxCell id="CgJOc7NydfEBPNeCv6qh-14" value="" style="shape=crossbar;whiteSpace=wrap;html=1;rounded=1;" vertex="1" parent="CgJOc7NydfEBPNeCv6qh-19">
          <mxGeometry x="176" width="44" height="20" as="geometry" />
        </mxCell>
        <mxCell id="CgJOc7NydfEBPNeCv6qh-15" value="" style="shape=crossbar;whiteSpace=wrap;html=1;rounded=1;" vertex="1" parent="CgJOc7NydfEBPNeCv6qh-19">
          <mxGeometry width="44" height="20" as="geometry" />
        </mxCell>
        <mxCell id="CgJOc7NydfEBPNeCv6qh-16" value="" style="shape=crossbar;whiteSpace=wrap;html=1;rounded=1;" vertex="1" parent="CgJOc7NydfEBPNeCv6qh-19">
          <mxGeometry x="220" width="44" height="20" as="geometry" />
        </mxCell>
        <mxCell id="CgJOc7NydfEBPNeCv6qh-17" value="" style="shape=crossbar;whiteSpace=wrap;html=1;rounded=1;" vertex="1" parent="CgJOc7NydfEBPNeCv6qh-19">
          <mxGeometry x="264" width="44" height="20" as="geometry" />
        </mxCell>
        <mxCell id="CgJOc7NydfEBPNeCv6qh-20" value="" style="shape=curlyBracket;whiteSpace=wrap;html=1;rounded=1;flipH=1;labelPosition=right;verticalLabelPosition=middle;align=left;verticalAlign=middle;rotation=90;dashed=1;fillColor=#d5e8d4;strokeColor=#82b366;strokeWidth=2;" vertex="1" parent="1">
          <mxGeometry x="1443.52" y="235.74" width="23.24" height="118.28" as="geometry" />
        </mxCell>
        <mxCell id="CgJOc7NydfEBPNeCv6qh-21" value="&lt;font color=&quot;#4d9900&quot;&gt;新模型判断&lt;/font&gt;" style="text;html=1;strokeColor=none;fillColor=none;align=center;verticalAlign=middle;whiteSpace=wrap;rounded=0;" vertex="1" parent="1">
          <mxGeometry x="1404.64" y="302" width="101" height="30" as="geometry" />
        </mxCell>
      </root>
    </mxGraphModel>
  </diagram>
</mxfile>
